<?xml version="1.0" encoding="UTF-8" standalone="no"?>
<!DOCTYPE svg PUBLIC "-//W3C//DTD SVG 1.1//EN" "http://www.w3.org/Graphics/SVG/1.1/DTD/svg11.dtd">
<svg width="100%" height="100%" viewBox="0 0 1107 791" version="1.1" xmlns="http://www.w3.org/2000/svg" xmlns:xlink="http://www.w3.org/1999/xlink" xml:space="preserve" xmlns:serif="http://www.serif.com/" style="fill-rule:evenodd;clip-rule:evenodd;stroke-linejoin:round;stroke-miterlimit:2;">
    <g transform="matrix(1,0,0,1,-88.9596,-502.577)">
        <g transform="matrix(1.28381,0,0,1.28381,-145.009,-328.293)">
            <g>
                <g transform="matrix(0.738616,0,0,0.7166,142.625,351.19)">
                    <path d="M1052.9,1091.68C1052.9,1062.46 1029.88,1038.73 1001.53,1038.73L244.024,1038.73C215.667,1038.73 192.646,1062.46 192.646,1091.68L192.646,1219.08C192.646,1248.3 215.667,1272.03 244.024,1272.03L1001.53,1272.03C1029.88,1272.03 1052.9,1248.3 1052.9,1219.08L1052.9,1091.68Z" style="fill:rgb(193,193,193);"/>
                </g>
                <g transform="matrix(0.859568,0,0,0.833947,80.1965,145.713)">
                    <path d="M1052.9,1091.68C1052.9,1062.46 1029.88,1038.73 1001.53,1038.73L244.024,1038.73C215.667,1038.73 192.646,1062.46 192.646,1091.68L192.646,1219.08C192.646,1248.3 215.667,1272.03 244.024,1272.03L1001.53,1272.03C1029.88,1272.03 1052.9,1248.3 1052.9,1219.08L1052.9,1091.68Z" style="fill:rgb(216,216,216);"/>
                </g>
                <g transform="matrix(1.00203,0,0,0.972164,-10.791,-90.8989)">
                    <path d="M1052.9,1091.68C1052.9,1062.46 1029.88,1038.73 1001.53,1038.73L244.024,1038.73C215.667,1038.73 192.646,1062.46 192.646,1091.68L192.646,1219.08C192.646,1248.3 215.667,1272.03 244.024,1272.03L1001.53,1272.03C1029.88,1272.03 1052.9,1248.3 1052.9,1219.08L1052.9,1091.68Z" style="fill:rgb(235,235,235);"/>
                </g>
                <g transform="matrix(1.00203,0,0,0.972164,-10.791,-362.62)">
                    <path d="M1052.9,1091.68C1052.9,1062.46 1029.88,1038.73 1001.53,1038.73L244.024,1038.73C215.667,1038.73 192.646,1062.46 192.646,1091.68L192.646,1219.08C192.646,1248.3 215.667,1272.03 244.024,1272.03L1001.53,1272.03C1029.88,1272.03 1052.9,1248.3 1052.9,1219.08L1052.9,1091.68Z" style="fill:rgb(235,235,235);"/>
                </g>
            </g>
            <g transform="matrix(1.00052,0,0,1,-19.3912,30.3377)">
                <path d="M953.776,1037.91C953.776,1035.43 951.762,1033.42 949.281,1033.42L424.519,1033.42C422.039,1033.42 420.025,1035.43 420.025,1037.91L420.025,1061.27C420.025,1063.75 422.039,1065.77 424.519,1065.77L949.281,1065.77C951.762,1065.77 953.776,1063.75 953.776,1061.27L953.776,1037.91Z" style="fill:rgb(187,196,198);fill-opacity:0.65;"/>
            </g>
            <g transform="matrix(0.823791,0,0,1,54.8392,-16.3916)">
                <path d="M953.776,1037.91C953.776,1035.43 951.33,1033.42 948.317,1033.42L425.484,1033.42C422.471,1033.42 420.025,1035.43 420.025,1037.91L420.025,1061.27C420.025,1063.75 422.471,1065.77 425.484,1065.77L948.317,1065.77C951.33,1065.77 953.776,1063.75 953.776,1061.27L953.776,1037.91Z" style="fill:rgb(187,196,198);fill-opacity:0.65;"/>
            </g>
            <g transform="matrix(0.904048,0,0,1,21.129,-67.1309)">
                <path d="M953.776,1037.91C953.776,1035.43 951.547,1033.42 948.801,1033.42L424.999,1033.42C422.254,1033.42 420.025,1035.43 420.025,1037.91L420.025,1061.27C420.025,1063.75 422.254,1065.77 424.999,1065.77L948.801,1065.77C951.547,1065.77 953.776,1063.75 953.776,1061.27L953.776,1037.91Z" style="fill:rgb(187,196,198);fill-opacity:0.65;"/>
            </g>
            <g transform="matrix(1.02071,0,0,1.04641,-38.8586,-763.331)">
                <path d="M393.702,1679.71C393.702,1660.56 377.767,1645.02 358.141,1645.02L287.019,1645.02C267.393,1645.02 251.458,1660.56 251.458,1679.71L251.458,1749.29C251.458,1768.44 267.393,1783.98 287.019,1783.98L358.141,1783.98C377.767,1783.98 393.702,1768.44 393.702,1749.29L393.702,1679.71Z" style="fill:rgb(255,115,115);"/>
                <clipPath id="_clip1">
                    <path d="M393.702,1679.71C393.702,1660.56 377.767,1645.02 358.141,1645.02L287.019,1645.02C267.393,1645.02 251.458,1660.56 251.458,1679.71L251.458,1749.29C251.458,1768.44 267.393,1783.98 287.019,1783.98L358.141,1783.98C377.767,1783.98 393.702,1768.44 393.702,1749.29L393.702,1679.71Z"/>
                </clipPath>
                <g clip-path="url(#_clip1)">
                    <g transform="matrix(0.76313,0,0,0.744387,148.731,1102.32)">
                        <path d="M226.411,745.537L243.421,797.888L298.467,797.888L253.934,830.243L270.944,882.594L226.411,850.239L181.879,882.594L198.889,830.243L154.356,797.888L209.402,797.888L226.411,745.537Z" style="fill:white;"/>
                    </g>
                </g>
            </g>
            <g transform="matrix(0.933678,0,0,1,8.6838,-241.981)">
                <path d="M953.776,1037.91C953.776,1035.43 951.617,1033.42 948.959,1033.42L424.841,1033.42C422.183,1033.42 420.025,1035.43 420.025,1037.91L420.025,1061.27C420.025,1063.75 422.183,1065.77 424.841,1065.77L948.959,1065.77C951.617,1065.77 953.776,1063.75 953.776,1061.27L953.776,1037.91Z" style="fill:rgb(187,196,198);fill-opacity:0.65;"/>
            </g>
            <g transform="matrix(1,0,0,1,-19.173,-288.71)">
                <path d="M953.776,1037.91C953.776,1035.43 951.761,1033.42 949.279,1033.42L424.522,1033.42C422.04,1033.42 420.025,1035.43 420.025,1037.91L420.025,1061.27C420.025,1063.75 422.04,1065.77 424.522,1065.77L949.279,1065.77C951.761,1065.77 953.776,1063.75 953.776,1061.27L953.776,1037.91Z" style="fill:rgb(187,196,198);fill-opacity:0.65;"/>
            </g>
            <g transform="matrix(0.844941,0,0,1,45.9556,-337.889)">
                <path d="M953.776,1037.91C953.776,1035.43 951.391,1033.42 948.453,1033.42L425.347,1033.42C422.409,1033.42 420.025,1035.43 420.025,1037.91L420.025,1061.27C420.025,1063.75 422.409,1065.77 425.347,1065.77L948.453,1065.77C951.391,1065.77 953.776,1063.75 953.776,1061.27L953.776,1037.91Z" style="fill:rgb(187,196,198);fill-opacity:0.65;"/>
            </g>
            <g transform="matrix(1.02071,0,0,1.04641,-38.8586,-1035.65)">
                <path d="M393.702,1679.71C393.702,1660.56 377.767,1645.02 358.141,1645.02L287.019,1645.02C267.393,1645.02 251.458,1660.56 251.458,1679.71L251.458,1749.29C251.458,1768.44 267.393,1783.98 287.019,1783.98L358.141,1783.98C377.767,1783.98 393.702,1768.44 393.702,1749.29L393.702,1679.71Z" style="fill:rgb(255,115,115);"/>
                <clipPath id="_clip2">
                    <path d="M393.702,1679.71C393.702,1660.56 377.767,1645.02 358.141,1645.02L287.019,1645.02C267.393,1645.02 251.458,1660.56 251.458,1679.71L251.458,1749.29C251.458,1768.44 267.393,1783.98 287.019,1783.98L358.141,1783.98C377.767,1783.98 393.702,1768.44 393.702,1749.29L393.702,1679.71Z"/>
                </clipPath>
                <g clip-path="url(#_clip2)">
                    <g transform="matrix(0.979712,0,0,0.955649,69.3286,762.785)">
                        <text x="193.673px" y="1041.62px" style="font-family:'HelveticaNeue-Bold', 'Helvetica Neue';font-weight:700;font-size:128px;fill:white;">%</text>
                    </g>
                </g>
            </g>
        </g>
    </g>
</svg>
