<?xml version="1.0" encoding="UTF-8" standalone="no"?>
<!DOCTYPE svg PUBLIC "-//W3C//DTD SVG 1.1//EN" "http://www.w3.org/Graphics/SVG/1.1/DTD/svg11.dtd">
<svg width="100%" height="100%" viewBox="0 0 895 895" version="1.1" xmlns="http://www.w3.org/2000/svg" xmlns:xlink="http://www.w3.org/1999/xlink" xml:space="preserve" xmlns:serif="http://www.serif.com/" style="fill-rule:evenodd;clip-rule:evenodd;stroke-linejoin:round;stroke-miterlimit:2;">
<g transform="matrix(1,0,0,1,-197.772,-376.125)">
<g transform="matrix(1.28727,0,0,1.28727,-185.288,-236.524)">
<g transform="matrix(1.25456,0,0,1.25456,-164.192,-209.593)">
<circle cx="645" cy="823.354" r="276.929" style="fill:rgb(235,235,235);"/>
</g>
  <g transform="matrix(17.6233,0,0,17.6233,433.521,611.874)">
<path d="M12,0C8.629,2.866 6.516,3 3,3L3,14.535C3,19.138 6.203,20.339 12,24C17.797,20.339 21,19.138 21,14.535L21,3C17.484,3 15.371,2.866 12,0Z" style="fill:rgb(86,217,95);fill-rule:nonzero;"/>
    <path d="M12.99,-1.164C12.419,-1.649 11.581,-1.649 11.01,-1.164C8.014,1.383 6.125,1.472 3,1.472C2.156,1.472 1.472,2.156 1.472,3L1.472,14.535C1.472,17.357 2.45,19.137 4.32,20.771C5.891,22.144 8.2,23.407 11.184,25.292C11.682,25.607 12.318,25.607 12.816,25.292C15.8,23.407 18.109,22.144 19.68,20.771C21.55,19.137 22.528,17.357 22.528,14.535L22.528,3C22.528,2.156 21.844,1.472 21,1.472C17.875,1.472 15.986,1.383 12.99,-1.164ZM12,0C8.629,2.866 6.516,3 3,3L3,14.535C3,19.138 6.203,20.339 12,24C17.797,20.339 21,19.138 21,14.535L21,3C17.484,3 15.371,2.866 12,0Z" style="fill:rgb(216,216,216);"/>
</g>
  <g transform="matrix(24.4351,0,0,24.4351,340.416,541.775)">
<path d="M15.762,8.047L11.381,12.522L9.166,10.399L7.93,11.638L11.381,15L17,9.285L15.762,8.047Z" style="fill:white;fill-rule:nonzero;"/>
</g>
</g>
</g>
</svg>
